<?xml version="1.0" encoding="UTF-8"?>
<svg id="Layer_1" xmlns="http://www.w3.org/2000/svg" version="1.1" viewBox="0 0 872.15 716.39">
  <!-- Generator: Adobe Illustrator 30.6.0, SVG Export Plug-In . SVG Version: 2.1.4 Build 109)  -->
  <defs>
    <style>
      .st0 {
        fill: #ff5b03;
      }
    </style>
  </defs>
  <path class="st0" d="M871.32,597.63l-13.18-24.57-25.19-47.39-134.48-252.81-66.1-123.68L553.24.91c-.33-.64-.49-.9-.73-.91-.21,0-.6.33-1.11.52l-77.5,26.93-16.18-5.74-23.75,55.14-24.53-54.61-15.57,5.83L313.05.17l-35.26,67.96-141.72,272.56-64.58,123.76-36.14,69.16L.48,600.28c-.76.39-.58,1.14.32,1.38l80.73,20.14,121.47-233.32,129.22-248.1,23.5-45.51,33.24,65.5-93.67,178.96-101.26,193.7-48.44,92.25-23.89,45.68,45.39,23.13,43.4,22.32,69.61-15.55,102.05-22.96-.07-132.59h-101.37c-.7.09-1.42-.04-1.8-.17-.27-.09-.57-.63.02-1.12l25.25-50.09,40.11-79.39,176.41.12,8.01,15.38,58.4,115.17-94,.26v125.35s44.06,12.15,44.06,12.15l74.19,20.4,43.52,11.89c2.61.71,4.63.46,7.19-.76l82.24-39.06c1.14-.55,2.07-1.01,1.61-1.81l-1.19-2.07-25.2-48.87-151.87-292.15-88.62-170.5,29.09-63.52c.34-.75.42-.9.96-.79.55.11.46.57.85,1.28l177.04,330.16,56.29,105.06,46.49,86.39c.52.96.78,1.69,1.27,2.13.76.68,1.4.17,2.47-.11l77.13-20.15c.97-.26,1.55-.01,1.51-1.12-.01-.44-.5-1.14-.82-1.74ZM485.07,345.49l-104.21-.04,11.52-23.57,40.39-79.55,52.3,103.16Z"/>
</svg>