<?xml version="1.0" encoding="UTF-8"?>
<svg id="Layer_1" xmlns="http://www.w3.org/2000/svg" version="1.1" viewBox="0 0 1678.4 397.16">
  <!-- Generator: Adobe Illustrator 30.6.0, SVG Export Plug-In . SVG Version: 2.1.4 Build 109)  -->
  <defs>
    <style>
      .st0 {
        fill: #ff5b03;
      }
    </style>
  </defs>
  <path class="st0" d="M483.05,331.32l-7.31-13.62-13.96-26.27-74.56-140.15-36.65-68.56L306.71.5c-.18-.35-.27-.5-.4-.5-.12,0-.33.18-.61.29l-42.97,14.93-8.97-3.18-13.16,30.57-13.6-30.27-8.63,3.23L173.55.1l-19.55,37.68-78.57,151.11-35.8,68.61-20.04,38.34L.26,332.79c-.42.22-.32.63.18.76l44.75,11.16,67.34-129.35,71.64-137.55,13.03-25.23,18.43,36.31-51.93,99.21-56.14,107.38-26.85,51.14-13.25,25.33,25.16,12.82,24.06,12.37,38.59-8.62,56.57-12.73-.04-73.51h-56.2c-.39.05-.78-.02-1-.1-.15-.05-.31-.35.01-.62l14-27.77,22.23-44.01,97.8.07,4.44,8.52,32.37,63.85-52.11.14v69.49s24.42,6.74,24.42,6.74l41.13,11.31,24.12,6.59c1.45.4,2.57.25,3.99-.42l45.59-21.65c.63-.31,1.15-.56.89-1l-.66-1.15-13.97-27.09-84.19-161.96-49.13-94.52,16.13-35.21c.19-.42.23-.5.53-.44.31.06.25.31.47.71l98.15,183.04,31.21,58.25,25.78,47.89c.29.53.43.93.7,1.18.42.38.78.1,1.37-.06l42.76-11.17c.54-.14.86,0,.84-.62,0-.25-.28-.63-.46-.96ZM268.91,191.53l-57.78-.02,6.39-13.07,22.39-44.1,29,57.19Z"/>
  <polygon class="st0" points="1560.15 248.86 1542.04 248.99 1521.86 171.73 1521.5 249.06 1506.13 249.02 1506.29 140.56 1527.93 140.56 1544.51 203.66 1544.76 140.6 1560.16 140.62 1560.15 248.86"/>
  <path class="st0" d="M1678.15,228.22c-1.49,14.8-11.81,22.63-25.75,22.53-12.01-.09-22.45-5.74-24.94-18.44-.93-4.78-1.29-10.03-.83-15.39l16.73-.19c.05,4.87-.72,9.58,1.04,14,1.35,3.38,4.65,4.2,7.58,4.35s6.34-.74,7.77-4.08c3.12-7.31,1.41-16.04-4.17-21.56l-17.76-17.58c-8.91-8.81-12.11-19.76-10.49-31.85,1.65-12.32,10.41-20.53,23.2-20.85,7.79-.19,16.17.9,21.4,7.27,5.7,6.95,6.92,16.38,5.69,24.74l-16.03-.14c-.03-4.12.52-7.97-.68-11.56-1.17-3.49-4.19-4.8-6.95-4.95-3.26-.18-6.61.32-8.19,3.69-6.12,13.11,7.25,24.77,18.02,33.75,10.99,9.16,15.82,21.74,14.36,36.26Z"/>
  <polygon class="st0" points="1613.45 199.93 1589.78 199.95 1589.56 233.7 1619.52 233.73 1619.64 249.13 1572.3 249.13 1572.31 140.55 1619.2 140.53 1619.33 155.96 1589.57 155.98 1589.58 184.19 1613.12 184.28 1613.45 199.93"/>
  <polygon class="st0" points="1382.81 199.78 1359.37 199.87 1359.12 233.67 1388.78 233.8 1388.77 249.14 1341.9 249.13 1341.92 140.53 1388.61 140.5 1388.61 155.92 1359.16 155.99 1359.16 184.2 1382.64 184.19 1382.81 199.78"/>
  <polygon class="st0" points="1497.54 233.67 1497.96 249.13 1452.28 249.12 1452.28 140.63 1469.55 140.61 1469.54 233.7 1497.54 233.67"/>
  <polygon class="st0" points="1443.75 233.71 1444.17 249.09 1398.41 249.12 1398.36 140.92 1415.36 140.63 1415.42 233.56 1443.75 233.71"/>
  <path class="st0" d="M1309.6,215.16l1.74-1.37c-.24,2.58,1.18,4.88-.66,7.55-2.22-1.83-.88-4.13-1.08-6.18Z"/>
  <path class="st0" d="M1274.06,214.1c.51.32.76.71.92,1.29.72,2.67-.66,1.7,0,.14.11-.27.49-.43.95-.55l7.22-74.37h19.15s7.3,74.55,7.3,74.55c.68.33,1.26-.12,1.74-1.37l6.71-72.93,15.08-.18-11.06,108.12-21.51.27-7.85-72.17-8.1,72.12-22.69.05-11.66-108.42h16.78s7.03,73.45,7.03,73.45Z"/>
  <path class="st0" d="M1275.92,214.97c-.23,2.37,1.07,4.57-1.88,5.82l.02-6.7,1.86.88Z"/>
  <path class="st0" d="M1158.76,253.22c-23.66-8.91-28.99-33.13-28.94-56.88l.04-19.57,41.89.04.61,33.73c.09,4.98,3.26,9.35,7.37,10.64,4.52,1.43,10.23.33,12.43-4.09,4.48-9,2.85-32.14-5.8-40.7l-12.74-12.59-25.13-21.58c-19.02-16.33-22.07-41.4-14.55-64.65,5.11-15.81,18.18-26.75,34.4-29.52,12.41-2.12,24.86-1.72,36.69,1.99,26.72,8.37,31.6,33.53,31.4,60.04h-42.55s-.07-15.26-.07-15.26c-.02-3.67-1.22-7.52-4.42-9.95-3.61-2.74-11.35-2.8-14.3,1.33-5.57,7.82-3.04,18.43,3.28,25.12,19.04,20.17,46.89,33.26,54.59,58.04,5.76,18.51,4.58,38.52-1,56.98-3.65,12.08-12.07,22.21-23.86,26.86-15.67,6.18-33.3,6.06-49.34.02Z"/>
  <polygon class="st0" points="998.25 219.63 998.61 255.12 912.16 255.22 912.12 49.64 954.39 49.53 954.37 219.63 998.25 219.63"/>
  <path class="st0" d="M1090.88,49.55l-55.63.1-33.3,205.5,42.68.05,4.83-31.47,25.1.35,4.3,31.12,44.85-.03-32.82-205.62ZM1053.73,189.19l8.55-91.31c2.06,1.33,1.97,3.12,1.44,5.15l6.83,85.87-16.82.29Z"/>
  <path class="st0" d="M747.31,184.98l.13,70.24h-41.69s.04-71.13.04-71.13l-34.46-134.45,42.51-.06,8.01,49.27.95,4.31.13,1.83.99,4.15c-.05.24-.15.6-.12.82l2.79,16.78,3.71-19.71,9.49-57.37,41.44-.07-33.93,135.41Z"/>
  <path class="st0" d="M723.93,109.13c-1.2-.95-.89-2.71-.99-4.15l.99,4.15Z"/>
  <path class="st0" d="M722.81,103.14c-.96-1.19-1.05-2.79-.95-4.31l.95,4.31Z"/>
  <path class="st0" d="M641.58,49.55l-55.79.09-32.97,205.48,42.48.07,4.55-31.45,25.31.16,4.46,31.28,44.76-.03-32.8-205.61ZM604.48,189.21l9.04-91.94,7.88,91.95h-16.93Z"/>
  <path class="st0" d="M885.57,168.64l-18.84-119.09-55.58-.05-13.04,78.91-20.42,126.77h42.51s4.5-31.47,4.5-31.47l25.66.36,4.34,31.11,44.76.05-13.89-86.59ZM829.62,189.26l8.63-92.59,8.38,92.35-17.01.24Z"/>
  <path class="st0" d="M1068.68,337.5h-515.06c-.92-4.65-.96-8.77.03-13.57l514.84-.06.57-13,34.72,19.71-34.67,19.92-.42-13Z"/>
  <path class="st0" d="M1668.48,301.08c-9.22-13.85-25.49-24.06-44.03-24.06h-448.04c-18.56.02-35.2,10.06-44.55,23.87-10.6,15.67-11.95,35.39-4.46,51.82,9.87,21.64,30.28,32.36,53.44,32.35l448.29-.18c19.75-3.07,35.31-14.04,43.63-31.33,7.66-17.27,6.51-36.29-4.27-52.47ZM1622.91,374.68l-448.94-.2c-16.22-.01-30.41-11.88-36.44-24.27-7.72-15.88-5.66-33.62,5.28-46.49,7.63-8.98,18.39-16.24,30.88-16.24l444.66-.14c26.06-2.43,47.53,16.76,49.06,41.35,1.26,25.09-18.72,46-44.5,45.99Z"/>
  <path class="st0" d="M1398.81,350.19c-2.73.83-5.23.62-8.21.14l-8.76-31.48-.68,31.58c-2.1.34-4.24.46-7.01-.04l.04-48.3h9.53s7.62,27.36,7.62,27.36l.36-27.39h7.03s.07,48.13.07,48.13Z"/>
  <path class="st0" d="M1336.71,332.55c2.76-.44,4.65-.4,7.37-.07.43,3.61.46,7.22-.22,10.77-1,5.23-5.07,7.78-10.12,8.18-6.3.49-12.32-3.19-12.35-10.04l-.13-29.37c-.03-6.36,4.84-10.69,10.81-10.68,3.36,0,6.39.44,8.48,2.45,4.94,4.75,4.31,13.6,2.88,14.47-1.11.67-3.52.48-5.08.24-3.35-.52.72-9.2-5-9.86-2.69-.31-4.43,1.41-4.42,4.43l.11,27.19c0,2.33,1.52,3.71,3.42,3.86,1.62.13,4.12-.59,4.14-2.82l.1-8.76Z"/>
  <path class="st0" d="M1448.15,328.96l-10.32.02v14.55s12.68-.03,12.68-.03c.68,2.45.7,4.57-.02,7.11l-20.82.04-.03-48.53,20.84-.1c.64,2.36.68,4.49.1,7.07l-12.95.12.13,12.47,10.15.06.24,7.22Z"/>
  <path class="st0" d="M1367.25,329.02l-10.35.1.09,14.29,12.83-.07.15,7.3-21.19-.05-.09-48.37,20.77-.21c.88,2.33.68,4.86.27,7.24h-12.73s.03,12.64.03,12.64l10.18.26.04,6.88Z"/>
  <path class="st0" d="M1418.08,350.28c-2.8.67-5.22.49-8.07.2v-41.24s-8-.24-8-.24c-.29-2.56-.27-4.55.1-7.08h23.76s.03,7.1.03,7.1l-7.88.2.06,41.05Z"/>
  <path class="st0" d="M1478.15,335.31c-.14-4.09-1.31-7.26-4.32-9.52,5.84-3.25,5.23-16.66,2.18-20.37-1.45-1.77-4.1-3.3-7.28-3.3l-13.49-.02-.04,48.26c2.92.51,5.01.45,7.52.08l.27-20.18c2.77-.37,4.99-.08,6.18,1.06.78.74,1.17,2.64,1.22,4.22l.51,14.92,7.74.1-.5-15.24ZM1468.91,321.71c-1.2,1.26-3.68,1.77-5.94,1.1l.18-13.59c2.46-.22,4.19-.06,5.29.65,2.51,1.6,2.66,9.55.46,11.85Z"/>
</svg>